<?xml version="1.0" encoding="utf-8"?>
<!-- Generator: Adobe Illustrator 24.0.1, SVG Export Plug-In . SVG Version: 6.00 Build 0)  -->
<svg version="1.1" id="Layer_1" xmlns="http://www.w3.org/2000/svg" xmlns:xlink="http://www.w3.org/1999/xlink" x="0px" y="0px"
	 viewBox="0 0 1000 1000" style="enable-background:new 0 0 1000 1000;" xml:space="preserve">
<style type="text/css">
	.st0{fill:#29ABE2;stroke:#000000;stroke-miterlimit:10;}
	.st1{fill:none;}
	.st2{opacity:0.15;fill:url(#SVGID_1_);}
	.st3{opacity:0.5;fill:url(#SVGID_2_);}
	.st4{fill:url(#SVGID_3_);}
	.st5{opacity:0.03;fill:none;stroke:#FFFFFF;stroke-width:2;stroke-miterlimit:10;}
	.st6{fill:#0071BC;}
	.st7{font-family:'AdobeArabic-Regular';}
	.st8{font-size:328.5071px;}
	.st9{fill:#0071BC;stroke:#000000;stroke-width:10;stroke-miterlimit:10;}
	.st10{fill:#FFFFFF;}
	.st11{font-size:104.9883px;}
	.st12{fill:#39B54A;stroke:#231F20;stroke-miterlimit:10;}
</style>
<polyline class="st0" points="-1624.86,585.36 -1738.64,460 -1408.86,438.79 "/>
<text transform="matrix(1.7763 0 0 1 -1658.0157 520.1373)" class="st7" style="font-size:101.4451px;">اون مه</text>
<g>
	<line class="st1" x1="-492.09" y1="487.15" x2="-399.42" y2="600.31"/>
	<ellipse class="st1" cx="-492.09" cy="487.15" rx="122.73" ry="121.33"/>
	<ellipse class="st1" cx="-492.09" cy="487.15" rx="147.27" ry="145.59"/>
	<polyline class="st1" points="-492.09,487.15 -258,855.65 -492.09,487.15 -726.17,118.65 -492.09,487.15 -864.84,718.56 
		-492.09,487.15 -119.34,255.74 -492.09,487.15 -110.19,494.78 -492.09,487.15 -873.98,479.52 -492.09,487.15 -499.81,864.69 
		-492.09,487.15 -484.37,109.61 -492.09,487.15 -130.05,701.49 -492.09,487.15 -854.13,272.81 -492.09,487.15 -708.9,845.06 
		-492.09,487.15 -275.28,129.24 -492.09,487.15 -345.26,675.21 -492.09,487.15 -638.92,299.09 -492.09,487.15 -682.32,632.31 
		-492.09,487.15 -301.86,342 -492.09,487.15 -404.22,527.96 -492.09,487.15 -579.96,446.34 -492.09,487.15 -533.36,574.02 
		-492.09,487.15 -450.81,400.28 -492.09,487.15 184.01,526.08 -492.09,487.15 -1168.19,448.22 -492.09,487.15 -531.47,1155.54 
		-492.09,487.15 -452.71,-181.23 -492.09,487.15 -479.51,523.4 -492.09,487.15 -504.66,450.9 -492.09,487.15 -528.76,499.58 
		-492.09,487.15 -455.42,474.72 -492.09,487.15 -136.92,1091.95 -492.09,487.15 -847.26,-117.65 -492.09,487.15 -1103.87,838.27 
		-492.09,487.15 119.69,136.03 -492.09,487.15 -428.11,572.32 -492.09,487.15 -556.07,401.98 -492.09,487.15 -578.24,550.4 
		-492.09,487.15 -405.94,423.9 -492.09,487.15 -395.01,515.96 -492.09,487.15 -589.16,458.35 -492.09,487.15 -521.22,583.12 
		-492.09,487.15 -462.95,391.18 -492.09,487.15 -467.3,496.78 -492.09,487.15 -516.87,477.53 -492.09,487.15 -501.82,511.65 
		-492.09,487.15 -482.35,462.65 -492.09,487.15 -435.24,524.29 -492.09,487.15 -548.93,450.01 -492.09,487.15 -529.65,543.35 
		-492.09,487.15 -454.52,430.95 -492.09,487.15 -127.93,1096.92 -492.09,487.15 -856.25,-122.62 -492.09,487.15 -1108.89,847.16 
		-492.09,487.15 124.72,127.15 -492.09,487.15 44.98,801.07 -492.09,487.15 -1029.15,173.23 -492.09,487.15 -809.63,1018.09 
		-492.09,487.15 -174.54,-43.79 -492.09,487.15 -182.38,682.73 -492.09,487.15 -801.8,291.58 -492.09,487.15 -689.92,793.33 
		-492.09,487.15 -294.26,180.98 	"/>
	
		<radialGradient id="SVGID_1_" cx="-851.2398" cy="902.6599" r="416.857" gradientTransform="matrix(0.7066 0 0 0.6985 109.394 -143.3865)" gradientUnits="userSpaceOnUse">
		<stop  offset="0" style="stop-color:#230000"/>
		<stop  offset="0.73" style="stop-color:#93432A"/>
		<stop  offset="1" style="stop-color:#230000"/>
	</radialGradient>
	<ellipse class="st2" cx="-492.09" cy="487.15" rx="294.55" ry="291.19"/>
	
		<radialGradient id="SVGID_2_" cx="-851.2398" cy="902.6599" r="208.4285" gradientTransform="matrix(0.7066 0 0 0.6985 109.394 -143.3865)" gradientUnits="userSpaceOnUse">
		<stop  offset="0.15" style="stop-color:#FFFFFF"/>
		<stop  offset="0.2114" style="stop-color:#E2D1D2"/>
		<stop  offset="0.2918" style="stop-color:#BF9A9C"/>
		<stop  offset="0.3613" style="stop-color:#A67276"/>
		<stop  offset="0.4163" style="stop-color:#975A5E"/>
		<stop  offset="0.45" style="stop-color:#915155"/>
		<stop  offset="0.5553" style="stop-color:#6C3638"/>
		<stop  offset="0.6842" style="stop-color:#44191A"/>
		<stop  offset="0.787" style="stop-color:#2C0707"/>
		<stop  offset="0.85" style="stop-color:#230000"/>
		<stop  offset="0.8572" style="stop-color:#270201"/>
		<stop  offset="0.8647" style="stop-color:#340805"/>
		<stop  offset="0.8723" style="stop-color:#48120B"/>
		<stop  offset="0.88" style="stop-color:#652114"/>
		<stop  offset="0.8878" style="stop-color:#8B331F"/>
		<stop  offset="0.8955" style="stop-color:#B8492D"/>
		<stop  offset="0.9" style="stop-color:#D65836"/>
		<stop  offset="0.903" style="stop-color:#C95232"/>
		<stop  offset="0.9146" style="stop-color:#9D3C25"/>
		<stop  offset="0.9267" style="stop-color:#782A1A"/>
		<stop  offset="0.9392" style="stop-color:#591B10"/>
		<stop  offset="0.9523" style="stop-color:#410F09"/>
		<stop  offset="0.9661" style="stop-color:#300604"/>
		<stop  offset="0.9812" style="stop-color:#260201"/>
		<stop  offset="1" style="stop-color:#230000"/>
	</radialGradient>
	<ellipse class="st3" cx="-492.09" cy="487.15" rx="147.27" ry="145.59"/>
	
		<radialGradient id="SVGID_3_" cx="-851.2398" cy="902.6599" r="173.6904" gradientTransform="matrix(0.7066 0 0 0.6985 109.394 -143.3865)" gradientUnits="userSpaceOnUse">
		<stop  offset="0.15" style="stop-color:#FFFFFF"/>
		<stop  offset="0.2824" style="stop-color:#C2C2C2"/>
		<stop  offset="0.4253" style="stop-color:#888888"/>
		<stop  offset="0.5636" style="stop-color:#575757"/>
		<stop  offset="0.6936" style="stop-color:#313131"/>
		<stop  offset="0.8134" style="stop-color:#161616"/>
		<stop  offset="0.9192" style="stop-color:#060606"/>
		<stop  offset="1" style="stop-color:#000000"/>
	</radialGradient>
	<ellipse class="st4" cx="-492.09" cy="487.15" rx="122.73" ry="121.33"/>
	<polyline class="st5" points="-492.09,487.15 -258,855.65 -492.09,487.15 -726.17,118.65 -492.09,487.15 -864.84,718.56 
		-492.09,487.15 -119.34,255.74 -492.09,487.15 -110.19,494.78 -492.09,487.15 -873.98,479.52 -492.09,487.15 -499.81,864.69 
		-492.09,487.15 -484.37,109.61 -492.09,487.15 -130.05,701.49 -492.09,487.15 -854.13,272.81 -492.09,487.15 -708.9,845.06 
		-492.09,487.15 -275.28,129.24 -492.09,487.15 -345.26,675.21 -492.09,487.15 -638.92,299.09 -492.09,487.15 -682.32,632.31 
		-492.09,487.15 -301.86,342 -492.09,487.15 -404.22,527.96 -492.09,487.15 -579.96,446.34 -492.09,487.15 -533.36,574.02 
		-492.09,487.15 -450.81,400.28 -492.09,487.15 184.01,526.08 -492.09,487.15 -1168.19,448.22 -492.09,487.15 -531.47,1155.54 
		-492.09,487.15 -452.71,-181.23 -492.09,487.15 -479.51,523.4 -492.09,487.15 -504.66,450.9 -492.09,487.15 -528.76,499.58 
		-492.09,487.15 -455.42,474.72 -492.09,487.15 -136.92,1091.95 -492.09,487.15 -847.26,-117.65 -492.09,487.15 -1103.87,838.27 
		-492.09,487.15 119.69,136.03 -492.09,487.15 -428.11,572.32 -492.09,487.15 -556.07,401.98 -492.09,487.15 -578.24,550.4 
		-492.09,487.15 -405.94,423.9 -492.09,487.15 -395.01,515.96 -492.09,487.15 -589.16,458.35 -492.09,487.15 -521.22,583.12 
		-492.09,487.15 -462.95,391.18 -492.09,487.15 -467.3,496.78 -492.09,487.15 -516.87,477.53 -492.09,487.15 -501.82,511.65 
		-492.09,487.15 -482.35,462.65 -492.09,487.15 -435.24,524.29 -492.09,487.15 -548.93,450.01 -492.09,487.15 -529.65,543.35 
		-492.09,487.15 -454.52,430.95 -492.09,487.15 -127.93,1096.92 -492.09,487.15 -856.25,-122.62 -492.09,487.15 -1108.89,847.16 
		-492.09,487.15 124.72,127.15 -492.09,487.15 44.98,801.07 -492.09,487.15 -1029.15,173.23 -492.09,487.15 -809.63,1018.09 
		-492.09,487.15 -174.54,-43.79 -492.09,487.15 -182.38,682.73 -492.09,487.15 -801.8,291.58 -492.09,487.15 -689.92,793.33 
		-492.09,487.15 -294.26,180.98 	"/>
</g>
<g>
	<g>
		<path class="st6" d="M-716.61,603.97c8.09-0.86,15.82-3.94,22.93-6.91c4.22-1.77,6.33-2.65,10.55-4.42
			c22.09-9.46,43.16-21.43,64.45-32.53c5.85,1.99,12.97,4.6,17.99,6.59c0.12,0.45,0.18,0.68,0.31,1.13
			c-22.58,14.21-45.9,27.22-69.53,39.44c-6.16,3.18-12.6,6.15-17.62,7.43c-9.67,2.46-19.79-2.84-28.16-7.91
			C-716.07,605.66-716.25,605.1-716.61,603.97z"/>
		<path class="st6" d="M-574.19,698.1c-2.43,4.27-3.64,6.41-6.06,10.68c-6.26-2.15-9.36-3.33-15.51-5.89
			c-6.9,7.01-17.13,8.38-26.24,9.99c-19.98,1.63-43.04-3.91-59.25-15.58c-18.97-13.66-31.81-32.99-42.1-53.9
			c2.39,0.56,3.59,0.83,5.96,1.34c5.23,10.37,12.73,19.96,21.32,27.27c17.33,14.73,37.9,24.47,61.45,27.04
			c12.27,1.37,20.81,1.09,26.21-1.83c-3.56-1.71-5.33-2.61-8.84-4.47c-9.81-5.7-55.51-33.6-34.28-49.7
			c5.83-4.42,13.56-4.81,20.74-4.38c9.17,0.55,20.75,4.07,28.39,9.14c13.64,9.04,17.47,29.38,12.52,44.2
			C-583.67,694.66-580.53,695.88-574.19,698.1z M-603.97,669.06c-2.67-5.57-6.72-10.57-12.12-14.31
			c-8.16-5.66-19.99-8.98-23.28-6.26c-4.19,3.47,0.3,11.48,8.87,19.52c8.41,7.89,18.71,13.22,28.83,18.59
			C-600.18,681.21-601.15,674.92-603.97,669.06z"/>
		<path class="st6" d="M-570.25,699.44c9.91,3.32,24.47,6.73,34.01,0.54c3.42-3.32,5.07-5,8.29-8.39c5.23-0.9,7.8-1.41,12.84-2.56
			c0.33,0.29,0.5,0.44,0.83,0.73c-3.51,4.14-6,7.67-6.55,9.57c-0.88,3.03,0.01,5.79,3.93,7.91c5.24,2.84,12.29,4.7,22.14,4.84
			c1.34,0.02,2.01,0.02,3.35,0.03c-0.56,4.42-0.84,6.63-1.39,11.05c-1.8,0.01-2.71,0-4.51-0.02c-11.82,0.19-29.92-1.64-37.32-12.4
			c-0.3-0.05-0.45-0.08-0.74-0.13c-13.34,6.34-27.74,2.76-41.27-0.62c-1.44-0.47-2.16-0.71-3.59-1.21
			c-10.37-3.57-10.98-8.18-9.55-10.39c1.27-1.97,5.99-3.66,15.61-0.29C-572.61,698.65-571.83,698.91-570.25,699.44z M-519.64,655.55
			c4.58,3.82,9.18,7.91,13.96,12.17c-3.98,2.73-8.81,5.03-14.8,6.6c-4.87-4.28-9.53-8.35-13.88-12.84
			C-529.18,659.48-524.25,657.41-519.64,655.55z"/>
		<path class="st6" d="M-486.02,712.06c12.38-0.24,24.34-3.56,30.56-14.87c5.79-10.53,16.39-18.43,27.95-21.61
			c7.47-2.06,13.46-2.45,20.06-0.68c4.85,1.3,8.98,3.16,21.68,7.26c9.63,2.31,20.55-2.98,28.37-8.03c1.08-0.68,1.62-1.02,2.69-1.71
			c2.32,3.29,3.49,4.94,5.81,8.24c-1.26,0.82-1.89,1.22-3.16,2.02c-7.7,5.45-19.9,9.82-29.5,8.33c-0.27,0.13-0.41,0.19-0.69,0.32
			c0.06,2.79-0.81,5.56-3.1,8.09c-2.97,3.27-6.77,5.81-11,7.43c-16.5,6.33-37.56,8.46-54.69,2.94c-0.29,0.05-0.44,0.07-0.74,0.12
			c-9.61,10.72-24.59,12.13-38.09,13.22c-1.18,0.02-1.76,0.02-2.94,0.03c-10.79,0.04-13.07-3.77-12.63-6.11
			c0.4-2.08,3.98-4.95,14.02-4.94C-489.25,712.11-488.17,712.1-486.02,712.06z M-424.55,701.87c8.44-0.1,19.25-2.18,25.39-4.54
			c3.33-1.28,6.4-2.74,5.71-4.45c-1.17-2.9-6.83-5.25-12.18-6.72c-7.99-2.14-15.96-2.3-22.96-0.49
			c-8.96,2.32-15.47,6.66-18.13,11.51C-444.68,699.94-432.79,701.96-424.55,701.87z"/>
		<path class="st6" d="M-351.88,670.57c9.58-6.11,17.28-13.77,24.98-22.02c-4.63-0.27-8.11-2.26-10.71-4.85
			c-3.38-3.36-4.07-8.78-2.34-16.77c1.15-5.04,2.71-10.07,5.55-15.55c-1.71-1.8-3.23-4.01-4.5-6.5c0.33-0.35,0.49-0.53,0.82-0.88
			c20.44-8.29,37.28-24.6,51.53-40.37c6.62-7.33,16.41-20.91,26.02-19.94c14.31,1.45,1.28,34.99-1.99,41.7
			c-10.2,20.93-27.19,38.53-45.11,54.23c-10.82,14.75-22.31,28.04-37.46,38.54c-1.51,1.02-2.26,1.52-3.79,2.51
			c-9.1,5.92-13.41,4.5-14.51,2.68c-0.98-1.62,0.19-5.44,8.7-10.92C-353.57,671.69-353,671.32-351.88,670.57z M-299.3,601.48
			c-2.49-3-17.4,2.75-21.96,8.23c-5.4,6.5-13.87,21.96-9.99,27.89c1.02,1.56,9.65-0.06,21.26-8.57
			C-305.16,621.81-295.78,605.71-299.3,601.48z M-268.15,577.22c5.12-10.36,7.06-20.96,5.44-20.86
			c-10.74,0.62-25.68,23.27-35.18,32.55c5.05,3.6,8.16,9.87,8.56,19.65C-280.77,599.23-273.75,588.55-268.15,577.22z"/>
	</g>
</g>
<text transform="matrix(1.3405 0 0 1 509.5014 561.6914)" class="st6 st7 st8">مه</text>
<circle class="st9" cx="561.57" cy="549.65" r="138.86"/>
<circle class="st10" cx="560.59" cy="549.67" r="101.38"/>
<text transform="matrix(1.8383 0 0 1 502.9189 561.6914)" class="st7 st11">اون</text>
<path class="st12" d="M660.07,687.94c-30.99-4.63-62.46,2.99-93.12,8.89s-64.17,9.91-92.62-1.2c-2.59-1.01-5.21-2.16-8.07-2.29
	c-3.17-0.15-6.19,0.98-9.14,1.96c-31.64,10.58-69.89,6.42-97.09-10.56c-17.05-10.65-35.73-15.26-46.67-31.88
	c-17.64-26.83-22.12-60.47-25.64-90.39c-6.28-53.45,35.78-101.63,74.91-144.6s79.46-92.84,69.13-145.85
	c-20.93,33.99-23.06,73.49-23.62,111.59c-0.89,60.28,1.12,120.59,6.01,180.74c2.99,34.06-0.27,108.04-58.3,113.09
	c-2.39,9.28-11.71,14.3-23.15,15.53c-9.77,1.05-20.16-2.11-29.31,0.87c-14.81,4.82-19.1,23.23-34.73,25.75
	c-11.18,1.8-22.76-5.89-33.51-2.8c-6.78,1.95-10.76,7.53-15.67,11.84s-13.4,7.53-18.97,3.8"/>
<path class="st12" d="M354.98,715.62c12.3,2.3,25.75,0.08,36.01-5.95c2.86-1.68,5.63-3.7,9.07-4.28c4.63-0.79,9.2,1.18,13.53,2.74
	c14.03,5.07,30.05,6.31,44.98,3.48"/>
<path class="st12" d="M348.52,720.57c-0.8-1.18,2.71-0.96,2.29,0.34s-2.49,1.57-4.13,1.57c-9.25,0.04-18.5,0.08-27.76,0.12
	c-7.27,0.03-15.02,0.18-21.05,3.52c-7.77,4.3-10.39,12.51-14.95,19.23c-4.56,6.73-14.76,12.76-22.72,8.7"/>
</svg>
